{
	"asset":{
		"generator":"Khronos glTF Blender I/O v4.0.43",
		"version":"2.0"
	},
	"extensionsUsed":[
		"KHR_materials_emissive_strength"
	],
	"scene":0,
	"scenes":[
		{
			"name":"Scene",
			"nodes":[
				0,
				1,
				2,
				3,
				4,
				5,
				6
			]
		}
	],
	"nodes":[
		{
			"mesh":0,
			"name":"joystick",
			"rotation":[
				0,
				0,
				-0.10057653486728668,
				0.9949294328689575
			],
			"scale":[
				0.20469456911087036,
				0.20469456911087036,
				0.20469455420970917
			],
			"translation":[
				0.8032188415527344,
				2.402322769165039,
				-0.5604581236839294
			]
		},
		{
			"mesh":1,
			"name":"butBack",
			"rotation":[
				0,
				0,
				-0.09945248067378998,
				0.9950423240661621
			],
			"scale":[
				0.09678982943296432,
				0.09678982943296432,
				0.09678982943296432
			],
			"translation":[
				0.7808065414428711,
				2.3879494667053223,
				0.5120508670806885
			]
		},
		{
			"mesh":2,
			"name":"butFwd",
			"rotation":[
				0,
				0,
				-0.09945248067378998,
				0.9950423240661621
			],
			"scale":[
				0.09678982943296432,
				0.09678982943296432,
				0.09678982943296432
			],
			"translation":[
				0.7808065414428711,
				2.3879494667053223,
				0.2158186137676239
			]
		},
		{
			"mesh":3,
			"name":"screen",
			"scale":[
				1.210317850112915,
				1,
				1
			]
		},
		{
			"name":"arcadeMachineBlackBars",
			"scale":[
				1.210317850112915,
				1,
				1
			]
		},
		{
			"mesh":4,
			"name":"arcadeMachinePinkBars",
			"scale":[
				1.210317850112915,
				1,
				1
			]
		},
		{
			"mesh":5,
			"name":"arcadeMachineBody",
			"scale":[
				1.210317850112915,
				1,
				1
			]
		}
	],
	"materials":[
		{
			"doubleSided":true,
			"emissiveFactor":[
				0.800000011920929,
				0.800000011920929,
				0.800000011920929
			],
			"name":"Material.004",
			"pbrMetallicRoughness":{
				"metallicFactor":0,
				"roughnessFactor":0.5
			}
		},
		{
			"doubleSided":true,
			"emissiveFactor":[
				0.9828970432281494,
				1,
				0
			],
			"extensions":{
				"KHR_materials_emissive_strength":{
					"emissiveStrength":4
				}
			},
			"name":"Material.003",
			"pbrMetallicRoughness":{
				"baseColorFactor":[
					0,
					0,
					0,
					1
				]
			}
		},
		{
			"doubleSided":true,
			"emissiveFactor":[
				0,
				1,
				0.04051247611641884
			],
			"extensions":{
				"KHR_materials_emissive_strength":{
					"emissiveStrength":4
				}
			},
			"name":"green",
			"pbrMetallicRoughness":{
				"baseColorFactor":[
					0,
					0,
					0,
					1
				]
			}
		},
		{
			"doubleSided":true,
			"name":"screentex",
			"pbrMetallicRoughness":{
				"baseColorFactor":[
					0,
					0,
					0,
					1
				],
				"metallicFactor":0,
				"roughnessFactor":0.5
			}
		},
		{
			"doubleSided":true,
			"emissiveFactor":[
				0.7071983814239502,
				0,
				1
			],
			"extensions":{
				"KHR_materials_emissive_strength":{
					"emissiveStrength":2
				}
			},
			"name":"pinkBars",
			"pbrMetallicRoughness":{
				"baseColorFactor":[
					0,
					0,
					0,
					1
				]
			}
		},
		{
			"doubleSided":true,
			"name":"streaksBody",
			"pbrMetallicRoughness":{
				"baseColorTexture":{
					"index":0
				},
				"metallicFactor":0,
				"roughnessFactor":0.5
			}
		}
	],
	"meshes":[
		{
			"name":"joystick",
			"primitives":[
				{
					"attributes":{
						"POSITION":0,
						"NORMAL":1,
						"TEXCOORD_0":2
					},
					"indices":3,
					"material":0
				}
			]
		},
		{
			"name":"butBack",
			"primitives":[
				{
					"attributes":{
						"POSITION":4,
						"NORMAL":5,
						"TEXCOORD_0":6
					},
					"indices":7,
					"material":1
				}
			]
		},
		{
			"name":"butFwd",
			"primitives":[
				{
					"attributes":{
						"POSITION":8,
						"NORMAL":9,
						"TEXCOORD_0":10
					},
					"indices":7,
					"material":2
				}
			]
		},
		{
			"name":"screen",
			"primitives":[
				{
					"attributes":{
						"POSITION":11,
						"NORMAL":12,
						"TEXCOORD_0":13
					},
					"indices":14,
					"material":3
				}
			]
		},
		{
			"name":"arcademachine.002",
			"primitives":[
				{
					"attributes":{
						"POSITION":15,
						"NORMAL":16,
						"TEXCOORD_0":17
					},
					"indices":18,
					"material":4
				}
			]
		},
		{
			"name":"arcademachine.003",
			"primitives":[
				{
					"attributes":{
						"POSITION":19,
						"NORMAL":20,
						"TEXCOORD_0":21
					},
					"indices":22,
					"material":5
				}
			]
		}
	],
	"textures":[
		{
			"sampler":0,
			"source":0
		}
	],
	"images":[
		{
			"mimeType":"image/png",
			"name":"0052",
			"uri":"textures/0052.png"
		}
	],
	"accessors":[
		{
			"bufferView":0,
			"componentType":5126,
			"count":2224,
			"max":[
				1,
				2.1679110527038574,
				1
			],
			"min":[
				-1,
				-0.2152075618505478,
				-1
			],
			"type":"VEC3"
		},
		{
			"bufferView":1,
			"componentType":5126,
			"count":2224,
			"type":"VEC3"
		},
		{
			"bufferView":2,
			"componentType":5126,
			"count":2224,
			"type":"VEC2"
		},
		{
			"bufferView":3,
			"componentType":5123,
			"count":3336,
			"type":"SCALAR"
		},
		{
			"bufferView":4,
			"componentType":5126,
			"count":48,
			"max":[
				0.966728687286377,
				0.09299556910991669,
				0.9667289853096008
			],
			"min":[
				-0.9667294025421143,
				-0.17010968923568726,
				-0.9667289853096008
			],
			"type":"VEC3"
		},
		{
			"bufferView":5,
			"componentType":5126,
			"count":48,
			"type":"VEC3"
		},
		{
			"bufferView":6,
			"componentType":5126,
			"count":48,
			"type":"VEC2"
		},
		{
			"bufferView":7,
			"componentType":5123,
			"count":84,
			"type":"SCALAR"
		},
		{
			"bufferView":8,
			"componentType":5126,
			"count":48,
			"max":[
				0.966728687286377,
				0.09299556910991669,
				0.9667289853096008
			],
			"min":[
				-0.9667294025421143,
				-0.17010968923568726,
				-0.9667289853096008
			],
			"type":"VEC3"
		},
		{
			"bufferView":9,
			"componentType":5126,
			"count":48,
			"type":"VEC3"
		},
		{
			"bufferView":10,
			"componentType":5126,
			"count":48,
			"type":"VEC2"
		},
		{
			"bufferView":11,
			"componentType":5126,
			"count":4,
			"max":[
				-0.03991620987653732,
				4.155861854553223,
				0.8265374898910522
			],
			"min":[
				-0.3595168888568878,
				2.732388973236084,
				-0.9091213941574097
			],
			"type":"VEC3"
		},
		{
			"bufferView":12,
			"componentType":5126,
			"count":4,
			"type":"VEC3"
		},
		{
			"bufferView":13,
			"componentType":5126,
			"count":4,
			"type":"VEC2"
		},
		{
			"bufferView":14,
			"componentType":5123,
			"count":6,
			"type":"SCALAR"
		},
		{
			"bufferView":15,
			"componentType":5126,
			"count":116,
			"max":[
				1.217665672302246,
				5.564017295837402,
				1
			],
			"min":[
				-1.0378494262695312,
				-0.0006918495055288076,
				-1.0825839042663574
			],
			"type":"VEC3"
		},
		{
			"bufferView":16,
			"componentType":5126,
			"count":116,
			"type":"VEC3"
		},
		{
			"bufferView":17,
			"componentType":5126,
			"count":116,
			"type":"VEC2"
		},
		{
			"bufferView":18,
			"componentType":5123,
			"count":192,
			"type":"SCALAR"
		},
		{
			"bufferView":19,
			"componentType":5126,
			"count":947,
			"max":[
				1.0640043020248413,
				5.564016819000244,
				1
			],
			"min":[
				-1,
				0,
				-1.0825836658477783
			],
			"type":"VEC3"
		},
		{
			"bufferView":20,
			"componentType":5126,
			"count":947,
			"type":"VEC3"
		},
		{
			"bufferView":21,
			"componentType":5126,
			"count":947,
			"type":"VEC2"
		},
		{
			"bufferView":22,
			"componentType":5123,
			"count":4044,
			"type":"SCALAR"
		}
	],
	"bufferViews":[
		{
			"buffer":0,
			"byteLength":26688,
			"byteOffset":0,
			"target":34962
		},
		{
			"buffer":0,
			"byteLength":26688,
			"byteOffset":26688,
			"target":34962
		},
		{
			"buffer":0,
			"byteLength":17792,
			"byteOffset":53376,
			"target":34962
		},
		{
			"buffer":0,
			"byteLength":6672,
			"byteOffset":71168,
			"target":34963
		},
		{
			"buffer":0,
			"byteLength":576,
			"byteOffset":77840,
			"target":34962
		},
		{
			"buffer":0,
			"byteLength":576,
			"byteOffset":78416,
			"target":34962
		},
		{
			"buffer":0,
			"byteLength":384,
			"byteOffset":78992,
			"target":34962
		},
		{
			"buffer":0,
			"byteLength":168,
			"byteOffset":79376,
			"target":34963
		},
		{
			"buffer":0,
			"byteLength":576,
			"byteOffset":79544,
			"target":34962
		},
		{
			"buffer":0,
			"byteLength":576,
			"byteOffset":80120,
			"target":34962
		},
		{
			"buffer":0,
			"byteLength":384,
			"byteOffset":80696,
			"target":34962
		},
		{
			"buffer":0,
			"byteLength":48,
			"byteOffset":81080,
			"target":34962
		},
		{
			"buffer":0,
			"byteLength":48,
			"byteOffset":81128,
			"target":34962
		},
		{
			"buffer":0,
			"byteLength":32,
			"byteOffset":81176,
			"target":34962
		},
		{
			"buffer":0,
			"byteLength":12,
			"byteOffset":81208,
			"target":34963
		},
		{
			"buffer":0,
			"byteLength":1392,
			"byteOffset":81220,
			"target":34962
		},
		{
			"buffer":0,
			"byteLength":1392,
			"byteOffset":82612,
			"target":34962
		},
		{
			"buffer":0,
			"byteLength":928,
			"byteOffset":84004,
			"target":34962
		},
		{
			"buffer":0,
			"byteLength":384,
			"byteOffset":84932,
			"target":34963
		},
		{
			"buffer":0,
			"byteLength":11364,
			"byteOffset":85316,
			"target":34962
		},
		{
			"buffer":0,
			"byteLength":11364,
			"byteOffset":96680,
			"target":34962
		},
		{
			"buffer":0,
			"byteLength":7576,
			"byteOffset":108044,
			"target":34962
		},
		{
			"buffer":0,
			"byteLength":8088,
			"byteOffset":115620,
			"target":34963
		}
	],
	"samplers":[
		{
			"magFilter":9729,
			"minFilter":9987
		}
	],
	"buffers":[
		{
			"byteLength":123708,
			"uri":"arcade2.bin"
		}
	]
}
