{
	"asset":{
		"generator":"Khronos glTF Blender I/O v4.0.43",
		"version":"2.0"
	},
	"extensionsUsed":[
		"KHR_materials_emissive_strength"
	],
	"scene":0,
	"scenes":[
		{
			"name":"Scene",
			"nodes":[
				0,
				1,
				2,
				3,
				4
			]
		}
	],
	"nodes":[
		{
			"mesh":0,
			"name":"arcademachine",
			"scale":[
				1.210317850112915,
				1,
				1
			]
		},
		{
			"mesh":1,
			"name":"joystick",
			"rotation":[
				0,
				0,
				-0.10057653486728668,
				0.9949294328689575
			],
			"scale":[
				0.20469456911087036,
				0.20469456911087036,
				0.20469455420970917
			],
			"translation":[
				0.8032188415527344,
				2.402322769165039,
				-0.5604581236839294
			]
		},
		{
			"mesh":2,
			"name":"butBack",
			"rotation":[
				0,
				0,
				-0.09945248067378998,
				0.9950423240661621
			],
			"scale":[
				0.09678982943296432,
				0.09678982943296432,
				0.09678982943296432
			],
			"translation":[
				0.7808065414428711,
				2.3879494667053223,
				0.5120508670806885
			]
		},
		{
			"mesh":3,
			"name":"butFwd",
			"rotation":[
				0,
				0,
				-0.09945248067378998,
				0.9950423240661621
			],
			"scale":[
				0.09678982943296432,
				0.09678982943296432,
				0.09678982943296432
			],
			"translation":[
				0.7808065414428711,
				2.3879494667053223,
				0.2158186137676239
			]
		},
		{
			"mesh":4,
			"name":"screen",
			"scale":[
				1.210317850112915,
				1,
				1
			]
		}
	],
	"materials":[
		{
			"doubleSided":true,
			"name":"Material",
			"pbrMetallicRoughness":{
				"metallicFactor":0,
				"roughnessFactor":0.5
			}
		},
		{
			"doubleSided":true,
			"name":"Material.001",
			"pbrMetallicRoughness":{
				"baseColorFactor":[
					0.11638116091489792,
					0.11638116091489792,
					0.11638116091489792,
					1
				],
				"metallicFactor":0,
				"roughnessFactor":0.5
			}
		},
		{
			"doubleSided":true,
			"emissiveFactor":[
				0.7071983814239502,
				0,
				1
			],
			"extensions":{
				"KHR_materials_emissive_strength":{
					"emissiveStrength":2
				}
			},
			"name":"Material.002",
			"pbrMetallicRoughness":{
				"baseColorFactor":[
					0,
					0,
					0,
					1
				]
			}
		},
		{
			"doubleSided":true,
			"name":"image",
			"pbrMetallicRoughness":{
				"baseColorTexture":{
					"index":0
				},
				"metallicFactor":0,
				"roughnessFactor":0.5
			}
		},
		{
			"doubleSided":true,
			"emissiveFactor":[
				1,
				1,
				1
			],
			"extensions":{
				"KHR_materials_emissive_strength":{
					"emissiveStrength":3
				}
			},
			"name":"Material.004",
			"pbrMetallicRoughness":{
				"baseColorFactor":[
					0.800000011920929,
					0.800000011920929,
					0.800000011920929,
					1
				],
				"metallicFactor":0,
				"roughnessFactor":0.5
			}
		},
		{
			"doubleSided":true,
			"emissiveFactor":[
				0.053419098258018494,
				0,
				1
			],
			"extensions":{
				"KHR_materials_emissive_strength":{
					"emissiveStrength":4
				}
			},
			"name":"Material.003",
			"pbrMetallicRoughness":{
				"baseColorFactor":[
					0,
					0,
					0,
					1
				]
			}
		},
		{
			"doubleSided":true,
			"emissiveFactor":[
				0,
				1,
				0.04051247611641884
			],
			"extensions":{
				"KHR_materials_emissive_strength":{
					"emissiveStrength":4
				}
			},
			"name":"green",
			"pbrMetallicRoughness":{
				"baseColorFactor":[
					0,
					0,
					0,
					1
				]
			}
		},
		{
			"doubleSided":true,
			"name":"screentex",
			"pbrMetallicRoughness":{
				"baseColorTexture":{
					"index":1
				},
				"metallicFactor":0,
				"roughnessFactor":0.5
			}
		}
	],
	"meshes":[
		{
			"name":"arcademachine",
			"primitives":[
				{
					"attributes":{
						"POSITION":0,
						"NORMAL":1,
						"TEXCOORD_0":2
					},
					"indices":3,
					"material":0
				},
				{
					"attributes":{
						"POSITION":4,
						"NORMAL":5,
						"TEXCOORD_0":6
					},
					"indices":7,
					"material":1
				},
				{
					"attributes":{
						"POSITION":8,
						"NORMAL":9,
						"TEXCOORD_0":10
					},
					"indices":11,
					"material":2
				},
				{
					"attributes":{
						"POSITION":12,
						"NORMAL":13,
						"TEXCOORD_0":14
					},
					"indices":15,
					"material":3
				}
			]
		},
		{
			"name":"joystick",
			"primitives":[
				{
					"attributes":{
						"POSITION":16,
						"NORMAL":17,
						"TEXCOORD_0":18
					},
					"indices":19,
					"material":4
				}
			]
		},
		{
			"name":"butBack",
			"primitives":[
				{
					"attributes":{
						"POSITION":20,
						"NORMAL":21,
						"TEXCOORD_0":22
					},
					"indices":23,
					"material":5
				}
			]
		},
		{
			"name":"butFwd",
			"primitives":[
				{
					"attributes":{
						"POSITION":24,
						"NORMAL":25,
						"TEXCOORD_0":26
					},
					"indices":23,
					"material":6
				}
			]
		},
		{
			"name":"screen",
			"primitives":[
				{
					"attributes":{
						"POSITION":27,
						"NORMAL":28,
						"TEXCOORD_0":29
					},
					"indices":30,
					"material":7
				}
			]
		}
	],
	"textures":[
		{
			"sampler":0,
			"source":0
		},
		{
			"sampler":0,
			"source":1
		}
	],
	"images":[
		{
			"mimeType":"image/png",
			"name":"0052",
			"uri":"textures/0052.png"
		},
		{
			"mimeType":"image/jpeg",
			"name":"Untitled(1)",
			"uri":"textures/Untitled1.jpg"
		}
	],
	"accessors":[
		{
			"bufferView":0,
			"componentType":5126,
			"count":1036,
			"max":[
				1.217665672302246,
				5.564017295837402,
				1
			],
			"min":[
				-1.0378494262695312,
				-0.0006918495055288076,
				-1.0825837850570679
			],
			"type":"VEC3"
		},
		{
			"bufferView":1,
			"componentType":5126,
			"count":1036,
			"type":"VEC3"
		},
		{
			"bufferView":2,
			"componentType":5126,
			"count":1036,
			"type":"VEC2"
		},
		{
			"bufferView":3,
			"componentType":5123,
			"count":4230,
			"type":"SCALAR"
		},
		{
			"bufferView":4,
			"componentType":5126,
			"count":260,
			"max":[
				1.217665672302246,
				5.564017295837402,
				1
			],
			"min":[
				-1.0378494262695312,
				-0.0006918495055288076,
				-1.0825839042663574
			],
			"type":"VEC3"
		},
		{
			"bufferView":5,
			"componentType":5126,
			"count":260,
			"type":"VEC3"
		},
		{
			"bufferView":6,
			"componentType":5126,
			"count":260,
			"type":"VEC2"
		},
		{
			"bufferView":7,
			"componentType":5123,
			"count":576,
			"type":"SCALAR"
		},
		{
			"bufferView":8,
			"componentType":5126,
			"count":116,
			"max":[
				1.217665672302246,
				5.564017295837402,
				1
			],
			"min":[
				-1.0378494262695312,
				-0.0006918495055288076,
				-1.0825839042663574
			],
			"type":"VEC3"
		},
		{
			"bufferView":9,
			"componentType":5126,
			"count":116,
			"type":"VEC3"
		},
		{
			"bufferView":10,
			"componentType":5126,
			"count":116,
			"type":"VEC2"
		},
		{
			"bufferView":11,
			"componentType":5123,
			"count":192,
			"type":"SCALAR"
		},
		{
			"bufferView":12,
			"componentType":5126,
			"count":56,
			"max":[
				1.0640044212341309,
				5.433369159698486,
				1
			],
			"min":[
				-1,
				0,
				-1.0825834274291992
			],
			"type":"VEC3"
		},
		{
			"bufferView":13,
			"componentType":5126,
			"count":56,
			"type":"VEC3"
		},
		{
			"bufferView":14,
			"componentType":5126,
			"count":56,
			"type":"VEC2"
		},
		{
			"bufferView":15,
			"componentType":5123,
			"count":114,
			"type":"SCALAR"
		},
		{
			"bufferView":16,
			"componentType":5126,
			"count":2224,
			"max":[
				1,
				2.1679110527038574,
				1
			],
			"min":[
				-1,
				-0.2152075618505478,
				-1
			],
			"type":"VEC3"
		},
		{
			"bufferView":17,
			"componentType":5126,
			"count":2224,
			"type":"VEC3"
		},
		{
			"bufferView":18,
			"componentType":5126,
			"count":2224,
			"type":"VEC2"
		},
		{
			"bufferView":19,
			"componentType":5123,
			"count":3336,
			"type":"SCALAR"
		},
		{
			"bufferView":20,
			"componentType":5126,
			"count":48,
			"max":[
				0.966728687286377,
				0.09299556910991669,
				0.9667289853096008
			],
			"min":[
				-0.9667294025421143,
				-0.17010968923568726,
				-0.9667289853096008
			],
			"type":"VEC3"
		},
		{
			"bufferView":21,
			"componentType":5126,
			"count":48,
			"type":"VEC3"
		},
		{
			"bufferView":22,
			"componentType":5126,
			"count":48,
			"type":"VEC2"
		},
		{
			"bufferView":23,
			"componentType":5123,
			"count":84,
			"type":"SCALAR"
		},
		{
			"bufferView":24,
			"componentType":5126,
			"count":48,
			"max":[
				0.966728687286377,
				0.09299556910991669,
				0.9667289853096008
			],
			"min":[
				-0.9667294025421143,
				-0.17010968923568726,
				-0.9667289853096008
			],
			"type":"VEC3"
		},
		{
			"bufferView":25,
			"componentType":5126,
			"count":48,
			"type":"VEC3"
		},
		{
			"bufferView":26,
			"componentType":5126,
			"count":48,
			"type":"VEC2"
		},
		{
			"bufferView":27,
			"componentType":5126,
			"count":4,
			"max":[
				-0.03991620987653732,
				4.155861854553223,
				0.8265374898910522
			],
			"min":[
				-0.3595168888568878,
				2.732388973236084,
				-0.9091213941574097
			],
			"type":"VEC3"
		},
		{
			"bufferView":28,
			"componentType":5126,
			"count":4,
			"type":"VEC3"
		},
		{
			"bufferView":29,
			"componentType":5126,
			"count":4,
			"type":"VEC2"
		},
		{
			"bufferView":30,
			"componentType":5123,
			"count":6,
			"type":"SCALAR"
		}
	],
	"bufferViews":[
		{
			"buffer":0,
			"byteLength":12432,
			"byteOffset":0,
			"target":34962
		},
		{
			"buffer":0,
			"byteLength":12432,
			"byteOffset":12432,
			"target":34962
		},
		{
			"buffer":0,
			"byteLength":8288,
			"byteOffset":24864,
			"target":34962
		},
		{
			"buffer":0,
			"byteLength":8460,
			"byteOffset":33152,
			"target":34963
		},
		{
			"buffer":0,
			"byteLength":3120,
			"byteOffset":41612,
			"target":34962
		},
		{
			"buffer":0,
			"byteLength":3120,
			"byteOffset":44732,
			"target":34962
		},
		{
			"buffer":0,
			"byteLength":2080,
			"byteOffset":47852,
			"target":34962
		},
		{
			"buffer":0,
			"byteLength":1152,
			"byteOffset":49932,
			"target":34963
		},
		{
			"buffer":0,
			"byteLength":1392,
			"byteOffset":51084,
			"target":34962
		},
		{
			"buffer":0,
			"byteLength":1392,
			"byteOffset":52476,
			"target":34962
		},
		{
			"buffer":0,
			"byteLength":928,
			"byteOffset":53868,
			"target":34962
		},
		{
			"buffer":0,
			"byteLength":384,
			"byteOffset":54796,
			"target":34963
		},
		{
			"buffer":0,
			"byteLength":672,
			"byteOffset":55180,
			"target":34962
		},
		{
			"buffer":0,
			"byteLength":672,
			"byteOffset":55852,
			"target":34962
		},
		{
			"buffer":0,
			"byteLength":448,
			"byteOffset":56524,
			"target":34962
		},
		{
			"buffer":0,
			"byteLength":228,
			"byteOffset":56972,
			"target":34963
		},
		{
			"buffer":0,
			"byteLength":26688,
			"byteOffset":57200,
			"target":34962
		},
		{
			"buffer":0,
			"byteLength":26688,
			"byteOffset":83888,
			"target":34962
		},
		{
			"buffer":0,
			"byteLength":17792,
			"byteOffset":110576,
			"target":34962
		},
		{
			"buffer":0,
			"byteLength":6672,
			"byteOffset":128368,
			"target":34963
		},
		{
			"buffer":0,
			"byteLength":576,
			"byteOffset":135040,
			"target":34962
		},
		{
			"buffer":0,
			"byteLength":576,
			"byteOffset":135616,
			"target":34962
		},
		{
			"buffer":0,
			"byteLength":384,
			"byteOffset":136192,
			"target":34962
		},
		{
			"buffer":0,
			"byteLength":168,
			"byteOffset":136576,
			"target":34963
		},
		{
			"buffer":0,
			"byteLength":576,
			"byteOffset":136744,
			"target":34962
		},
		{
			"buffer":0,
			"byteLength":576,
			"byteOffset":137320,
			"target":34962
		},
		{
			"buffer":0,
			"byteLength":384,
			"byteOffset":137896,
			"target":34962
		},
		{
			"buffer":0,
			"byteLength":48,
			"byteOffset":138280,
			"target":34962
		},
		{
			"buffer":0,
			"byteLength":48,
			"byteOffset":138328,
			"target":34962
		},
		{
			"buffer":0,
			"byteLength":32,
			"byteOffset":138376,
			"target":34962
		},
		{
			"buffer":0,
			"byteLength":12,
			"byteOffset":138408,
			"target":34963
		}
	],
	"samplers":[
		{
			"magFilter":9729,
			"minFilter":9987
		}
	],
	"buffers":[
		{
			"byteLength":138420,
			"uri":"arcade.bin"
		}
	]
}
